<svg width="283" height="57" viewBox="0 0 283 57" fill="none" xmlns="http://www.w3.org/2000/svg">
<path d="M15.264 0.912H18.456V13.44H15.264V0.912ZM17.592 5.592H21.408V8.184H17.592V5.592ZM3.984 14.448H18.456V22.896H3.984V14.448ZM15.336 16.944H7.128V20.376H15.336V16.944ZM1.848 1.968H5.04V11.064H1.848V1.968ZM1.848 9.696H3.72C6.744 9.696 10.032 9.48 13.536 8.808L13.896 11.376C10.272 12.12 6.864 12.312 3.72 12.312H1.848V9.696ZM23.0381 12.24H43.1261V14.784H23.0381V12.24ZM25.4621 20.208H40.8701V22.752H25.4621V20.208ZM25.4621 16.272H28.6541V21.024H25.4621V16.272ZM33.0941 1.56C37.9181 1.56 41.1341 3.312 41.1341 6.144C41.1341 8.976 37.9181 10.728 33.0941 10.728C28.2461 10.728 25.0541 8.976 25.0541 6.144C25.0541 3.312 28.2461 1.56 33.0941 1.56ZM33.0941 4.104C30.0941 4.104 28.3421 4.8 28.3421 6.144C28.3421 7.512 30.0941 8.184 33.0941 8.184C36.0941 8.184 37.8461 7.512 37.8461 6.144C37.8461 4.8 36.0941 4.104 33.0941 4.104ZM56.5586 1.92H59.1986V4.056C59.1986 8.256 57.1586 12.072 52.8146 13.464L51.2546 10.944C54.9986 9.744 56.5586 6.864 56.5586 4.056V1.92ZM57.2066 1.92H59.8226V4.056C59.8226 6.792 61.3586 9.48 64.9826 10.584L63.4226 13.08C59.1746 11.736 57.2066 8.184 57.2066 4.056V1.92ZM54.6626 15.144H69.8306V23.136H66.6146V17.688H54.6626V15.144ZM66.6146 0.912H69.8306V14.16H66.6146V0.912ZM81.8768 13.128H85.0688V16.512H81.8768V13.128ZM73.4288 11.304H93.5168V13.824H73.4288V11.304ZM75.1808 1.512H91.7408V4.056H75.1808V1.512ZM75.3488 7.392H91.5728V9.936H75.3488V7.392ZM78.0128 2.448H81.2048V9.048H78.0128V2.448ZM85.7168 2.448H88.9088V9.048H85.7168V2.448ZM75.7568 15.672H91.1168V22.896H75.7568V15.672ZM87.9968 18.144H78.9008V20.376H87.9968V18.144ZM105.563 1.224C110.627 1.224 113.603 2.568 113.603 5.016C113.603 7.464 110.627 8.808 105.563 8.808C100.475 8.808 97.5229 7.464 97.5229 5.016C97.5229 2.568 100.475 1.224 105.563 1.224ZM105.563 3.552C102.347 3.552 100.835 4.032 100.835 5.016C100.835 6.048 102.347 6.48 105.563 6.48C108.779 6.48 110.291 6.048 110.291 5.016C110.291 4.032 108.779 3.552 105.563 3.552ZM95.5069 9.84H115.595V12.36H95.5069V9.84ZM97.8109 13.608H113.171V19.32H100.979V21.288H97.8349V17.112H110.027V15.984H97.8109V13.608ZM97.8349 20.592H113.747V22.992H97.8349V20.592ZM126.243 20.208H141.651V22.752H126.243V20.208ZM126.243 16.32H129.435V21.072H126.243V16.32ZM123.819 12.432H143.931V14.976H123.819V12.432ZM132.243 9.336H135.411V13.416H132.243V9.336ZM132.195 1.536H134.931V2.208C134.931 6.408 131.715 9.792 126.075 10.68L124.851 8.184C129.819 7.488 132.195 4.8 132.195 2.208V1.536ZM132.723 1.536H135.459V2.208C135.459 4.92 137.787 7.512 142.803 8.184L141.579 10.68C135.939 9.744 132.723 6.528 132.723 2.208V1.536ZM151.993 11.304H155.162V15.096H151.993V11.304ZM149.21 14.664H152.378V16.488H161.258V14.664H164.426V22.896H149.21V14.664ZM152.378 18.888V20.4H161.258V18.888H152.378ZM161.234 0.912H164.426V13.728H161.234V0.912ZM146.306 12.792L145.946 10.272C150.026 10.272 155.378 10.248 160.058 9.648L160.25 11.904C155.474 12.744 150.314 12.792 146.306 12.792ZM151.73 1.488H154.274V2.352C154.274 5.712 152.282 8.472 148.058 9.384L146.69 6.984C150.218 6.24 151.73 4.344 151.73 2.352V1.488ZM152.474 1.488H155.042V2.352C155.042 4.224 156.578 6 159.986 6.624L158.666 9.048C154.514 8.184 152.474 5.568 152.474 2.352V1.488ZM184.08 0.912H187.128V23.136H184.08V0.912ZM175.272 9.432H180.024V11.952H175.272V9.432ZM179.4 1.392H182.376V22.152H179.4V1.392ZM174.552 3.528H177.624C177.624 9.864 175.728 14.904 169.488 18.528L167.688 16.296C172.752 13.248 174.552 9.552 174.552 4.176V3.528ZM168.936 3.528H175.56V6.072H168.936V3.528ZM196.744 2.712H208.6V5.28H196.744V2.712ZM196.504 14.328L196.168 11.76C199.936 11.736 205.096 11.688 209.368 11.136L209.584 13.464C205.216 14.232 200.176 14.328 196.504 14.328ZM198.496 4.68H201.568V12.24H198.496V4.68ZM203.8 4.68H206.848V12.24H203.8V4.68ZM210.592 0.935999H213.784V17.304H210.592V0.935999ZM212.872 7.176H216.736V9.816H212.872V7.176ZM199.456 20.208H214.576V22.752H199.456V20.208ZM199.456 15.768H202.648V20.88H199.456V15.768ZM234.422 0.912H237.47V23.136H234.422V0.912ZM231.758 9.384H235.43V11.952H231.758V9.384ZM229.55 1.248H232.55V22.128H229.55V1.248ZM218.99 3.192H227.774V17.592H218.99V3.192ZM224.798 5.688H221.966V15.096H224.798V5.688ZM254.7 0.912H257.868V23.136H254.7V0.912ZM257.148 9.576H261.084V12.24H257.148V9.576ZM240.348 4.2H253.284V6.744H240.348V4.2ZM246.852 7.992C250.092 7.992 252.492 10.2 252.492 13.296C252.492 16.392 250.092 18.6 246.852 18.6C243.612 18.6 241.212 16.392 241.212 13.296C241.212 10.2 243.612 7.992 246.852 7.992ZM246.852 10.584C245.34 10.584 244.26 11.592 244.26 13.296C244.26 15 245.34 16.008 246.852 16.008C248.364 16.008 249.444 15 249.444 13.296C249.444 11.592 248.364 10.584 246.852 10.584ZM245.244 1.272H248.436V5.16H245.244V1.272ZM264.587 2.784H278.675V5.352H264.587V2.784ZM262.547 17.88H282.635V20.472H262.547V17.88ZM269.651 10.248H272.843V19.152H269.651V10.248ZM277.523 2.784H280.715V4.92C280.715 7.704 280.715 10.824 279.827 15.576L276.635 15.216C277.523 10.8 277.523 7.584 277.523 4.92V2.784ZM17.184 33.912H20.208V56.136H17.184V33.912ZM14.52 42.432H18.216V45.024H14.52V42.432ZM12.408 34.248H15.384V55.128H12.408V34.248ZM4.92 37.368H7.344V39.336C7.344 44.832 6.144 49.68 2.448 51.912L0.528 49.464C3.864 47.544 4.92 43.608 4.92 39.336V37.368ZM5.568 37.368H8.016V39.336C8.016 43.248 9.144 46.944 12.456 48.672L10.632 51.096C6.888 49.08 5.568 44.496 5.568 39.336V37.368ZM1.248 36.168H11.352V38.736H1.248V36.168ZM25.1021 35.784H39.1901V38.352H25.1021V35.784ZM23.0621 50.88H43.1501V53.472H23.0621V50.88ZM30.1661 43.248H33.3581V52.152H30.1661V43.248ZM38.0381 35.784H41.2301V37.92C41.2301 40.704 41.2301 43.824 40.3421 48.576L37.1501 48.216C38.0381 43.8 38.0381 40.584 38.0381 37.92V35.784ZM51.3506 46.704H71.4866V49.224H51.3506V46.704ZM59.7506 47.976H62.9186V56.136H59.7506V47.976ZM53.6546 34.752H56.8226V37.272H65.9426V34.752H69.1106V44.592H53.6546V34.752ZM56.8226 39.768V42.048H65.9426V39.768H56.8226ZM87.7328 33.912H90.9248V46.368H87.7328V33.912ZM90.0368 38.904H93.8768V41.496H90.0368V38.904ZM74.2688 43.032H76.1168C80.9408 43.032 83.3408 42.912 86.0048 42.36L86.3168 44.88C83.6048 45.48 81.0608 45.6 76.1168 45.6H74.2688V43.032ZM74.2688 35.28H84.1328V37.824H77.4368V44.52H74.2688V35.28ZM76.4768 47.328H90.9248V55.896H76.4768V47.328ZM87.8048 49.848H79.6208V53.376H87.8048V49.848ZM105.563 34.224C110.627 34.224 113.603 35.568 113.603 38.016C113.603 40.464 110.627 41.808 105.563 41.808C100.475 41.808 97.5229 40.464 97.5229 38.016C97.5229 35.568 100.475 34.224 105.563 34.224ZM105.563 36.552C102.347 36.552 100.835 37.032 100.835 38.016C100.835 39.048 102.347 39.48 105.563 39.48C108.779 39.48 110.291 39.048 110.291 38.016C110.291 37.032 108.779 36.552 105.563 36.552ZM95.5069 42.84H115.595V45.36H95.5069V42.84ZM97.8109 46.608H113.171V52.32H100.979V54.288H97.8349V50.112H110.027V48.984H97.8109V46.608ZM97.8349 53.592H113.747V55.992H97.8349V53.592ZM132.267 44.496H135.459V47.592H132.267V44.496ZM123.819 42.744H143.907V45.24H123.819V42.744ZM126.123 46.632H141.483V52.344H129.291V54.288H126.147V50.16H138.339V48.96H126.123V46.632ZM126.147 53.616H142.059V55.992H126.147V53.616ZM131.955 35.472H134.739V36.024C134.739 39.192 131.595 41.712 125.691 42.144L124.707 39.744C129.771 39.408 131.955 37.632 131.955 36.024V35.472ZM132.987 35.472H135.771V36.024C135.771 37.632 137.955 39.408 143.043 39.744L142.059 42.144C136.155 41.712 132.987 39.216 132.987 36.024V35.472ZM125.643 34.512H142.107V36.984H125.643V34.512ZM161.138 33.888H164.354V56.184H161.138V33.888ZM152.378 35.448C155.738 35.448 158.21 38.52 158.21 43.368C158.21 48.264 155.738 51.336 152.378 51.336C149.018 51.336 146.546 48.264 146.546 43.368C146.546 38.52 149.018 35.448 152.378 35.448ZM152.378 38.352C150.722 38.352 149.594 40.104 149.594 43.368C149.594 46.68 150.722 48.456 152.378 48.456C154.034 48.456 155.138 46.68 155.138 43.368C155.138 40.104 154.034 38.352 152.378 38.352ZM176.736 41.376H180.408V43.968H176.736V41.376ZM171.984 35.832H174.432V39.576C174.432 44.616 173.04 49.536 169.488 51.72L167.568 49.32C170.832 47.304 171.984 43.344 171.984 39.576V35.832ZM172.68 35.832H175.08V39.432C175.08 43.056 176.016 46.752 179.04 48.72L177.312 51.216C173.784 49.032 172.68 44.232 172.68 39.432V35.832ZM184.032 33.912H187.08V56.136H184.032V33.912ZM179.52 34.248H182.496V55.128H179.52V34.248ZM194.494 45.192H197.662V51.432H194.494V45.192ZM202.558 45.192H205.75V51.432H202.558V45.192ZM190.078 50.976H210.19V53.568H190.078V50.976ZM200.11 34.992C204.886 34.992 208.414 37.344 208.414 40.968C208.414 44.592 204.886 46.92 200.11 46.92C195.31 46.92 191.806 44.592 191.806 40.968C191.806 37.344 195.31 34.992 200.11 34.992ZM200.11 37.488C197.014 37.488 194.95 38.76 194.95 40.968C194.95 43.152 197.014 44.448 200.11 44.448C203.206 44.448 205.27 43.152 205.27 40.968C205.27 38.76 203.206 37.488 200.11 37.488ZM216.047 48.3164H213.188L212.59 36.8672H216.645L216.047 48.3164ZM212.543 52.3242C212.543 51.5898 212.742 51.0742 213.141 50.7773C213.547 50.4805 214.035 50.332 214.605 50.332C215.16 50.332 215.637 50.4805 216.035 50.7773C216.441 51.0742 216.645 51.5898 216.645 52.3242C216.645 53.0273 216.441 53.5352 216.035 53.8477C215.637 54.1602 215.16 54.3164 214.605 54.3164C214.035 54.3164 213.547 54.1602 213.141 53.8477C212.742 53.5352 212.543 53.0273 212.543 52.3242Z" fill="#1F1F1F"/>
</svg>
