<svg width="208" height="24" viewBox="0 0 208 24" fill="none" xmlns="http://www.w3.org/2000/svg">
<path d="M5.36606 4.944H7.93406V5.736C7.93406 9.624 5.96606 13.104 1.74206 14.352L0.230063 11.856C3.83006 10.8 5.36606 8.256 5.36606 5.736V4.944ZM5.96606 4.944H8.55806V5.736C8.55806 8.016 10.0941 10.368 13.6461 11.328L12.2061 13.776C7.95806 12.648 5.96606 9.384 5.96606 5.736V4.944ZM0.998062 3.168H12.9261V5.664H0.998062V3.168ZM5.36606 0.839999H8.55806V4.224H5.36606V0.839999ZM12.3501 6.792H16.5741V9.384H12.3501V6.792ZM15.7821 0.912H18.9741V16.032H15.7821V0.912ZM9.90206 14.784H12.6141V15.12C12.6141 18.792 9.59006 22.272 4.04606 23.064L2.89406 20.568C7.55006 19.896 9.90206 17.28 9.90206 15.12V14.784ZM10.4541 14.784H13.1661V15.12C13.1661 17.424 15.4221 19.92 20.1981 20.568L18.9981 23.064C13.4781 22.248 10.4541 18.96 10.4541 15.12V14.784ZM23.2202 8.976H25.0682C29.7002 8.976 32.2202 8.832 35.0282 8.256L35.3642 10.728C32.5082 11.376 29.8202 11.472 25.0682 11.472H23.2202V8.976ZM23.2202 2.064H33.1562V4.56H26.3882V10.368H23.2202V2.064ZM36.7562 0.912H39.9482V11.952H36.7562V0.912ZM39.0602 5.088H42.9002V7.68H39.0602V5.088ZM25.2602 12.864H39.9482V19.008H28.4762V21.672H25.3082V16.656H36.8042V15.36H25.2602V12.864ZM25.3082 20.376H40.5962V22.896H25.3082V20.376ZM50.7647 13.344H70.9007V15.888H50.7647V13.344ZM59.1647 14.976H62.3327V23.136H59.1647V14.976ZM53.0927 1.992H68.5007V10.968H53.0927V1.992ZM65.3567 4.512H56.2367V8.448H65.3567V4.512ZM77.9548 13.872H81.0748V19.104H77.9548V13.872ZM84.9868 13.848H88.1068V19.104H84.9868V13.848ZM72.8668 18.096H92.9788V20.688H72.8668V18.096ZM75.1228 2.352H90.7228V9.72H78.3388V13.488H75.1708V7.224H87.5548V4.872H75.1228V2.352ZM75.1708 12.144H91.2268V14.712H75.1708V12.144ZM94.9449 18.096H115.057V20.688H94.9449V18.096ZM103.369 13.896H106.561V19.152H103.369V13.896ZM97.2009 2.352H112.801V9.744H100.417V13.488H97.2489V7.248H109.633V4.872H97.2009V2.352ZM97.2489 12.216H113.305V14.784H97.2489V12.216ZM128.657 2.616H131.249V5.856C131.249 11.568 129.281 16.728 124.865 18.768L122.969 16.128C126.833 14.448 128.657 10.176 128.657 5.856V2.616ZM129.281 2.616H131.873V5.856C131.873 9.96 133.625 14.04 137.417 15.672L135.545 18.24C131.249 16.272 129.281 11.328 129.281 5.856V2.616ZM138.473 0.887999H141.689V23.184H138.473V0.887999ZM150.256 3.192H152.872V4.584C152.872 8.784 150.88 12.552 146.632 13.92L144.976 11.448C148.696 10.248 150.256 7.368 150.256 4.584V3.192ZM150.904 3.192H153.496V4.584C153.496 7.2 155.008 9.912 158.608 11.064L156.976 13.536C152.824 12.192 150.904 8.568 150.904 4.584V3.192ZM145.84 2.208H157.84V4.752H145.84V2.208ZM159.616 0.912H162.808V14.304H159.616V0.912ZM161.92 6.288H165.76V8.904H161.92V6.288ZM147.976 15.264H162.808V23.136H159.616V17.832H147.976V15.264ZM181.646 0.912H184.814V23.136H181.646V0.912ZM184.094 9.576H188.03V12.24H184.094V9.576ZM167.294 4.2H180.23V6.744H167.294V4.2ZM173.798 7.992C177.038 7.992 179.438 10.2 179.438 13.296C179.438 16.392 177.038 18.6 173.798 18.6C170.558 18.6 168.158 16.392 168.158 13.296C168.158 10.2 170.558 7.992 173.798 7.992ZM173.798 10.584C172.286 10.584 171.206 11.592 171.206 13.296C171.206 15 172.286 16.008 173.798 16.008C175.31 16.008 176.39 15 176.39 13.296C176.39 11.592 175.31 10.584 173.798 10.584ZM172.19 1.272H175.382V5.16H172.19V1.272ZM204.78 0.912H207.996V23.136H204.78V0.912ZM198.228 3.216H201.396C201.396 10.008 199.092 15.576 191.196 19.392L189.54 16.848C195.924 13.776 198.228 9.744 198.228 3.792V3.216ZM190.716 3.216H199.74V5.736H190.716V3.216Z" fill="white"/>
</svg>
